<svg id="Layer_1" data-name="Layer 1" xmlns="http://www.w3.org/2000/svg" width="12mm" height="2.5mm" viewBox="0 0 34 7"><path d="M63.4,35.6l-5.7-3.8v3.8H55.6v-7l5.8,3.8V28.6h2Z" transform="translate(-55.6 -28.6)" style="fill:#231f20"/><path d="M72.2,28.6v7H70.1V32.7H66.4v2.9H64.3v-7Zm-5.7,1.1v1.9h3.6V29.7Z" transform="translate(-55.6 -28.6)" style="fill:#231f20"/><path d="M80.8,35.6l-5.7-3.8v3.8H73v-7l5.8,3.8V28.6h2Z" transform="translate(-55.6 -28.6)" style="fill:#231f20"/><path d="M83.4,35.6l-1.7-1.9V28.6h7.9v7Zm.3-5.9v3.6l1.2,1.3h2.6V29.7Z" transform="translate(-55.6 -28.6)" style="fill:#231f20"/></svg>