<svg id="Layer_1" data-name="Layer 1" xmlns="http://www.w3.org/2000/svg" width="12.1mm" height="3.4mm" viewBox="0 0 34.4 9.6"><path d="M10.7,115l-2.4-1.1.5-.4h-3l-.9-.2-.3-.5.5-.2,1.8-.3,4.2-.2h.5l-3.4-.8-2.7-.8H5.4c-1,0-1.5-.7-1.9-1.6a5.1,5.1,0,0,1,1.7-.7,53.8,53.8,0,0,1,10.5-1.3c3.7-.1,7.3-.1,11,.1s5.1.5,7.7.8a8.3,8.3,0,0,1,2.1.6,6.1,6.1,0,0,1,1.4,1c-.4.8-.8,1.5-1.8,1.7s-3.1.6-4.5.9l2.8.2,2.1.3.7.4v.3l-2.5.3h-.4a1.7,1.7,0,0,0-1.5.7c-.2.3-.6.4-.9.6l.8.3c-.9.9-2.2.8-3.3.9a29.9,29.9,0,0,1-5.2.1,47,47,0,0,0-5.3.2l-5.4-.2-2.5-.4-.7-.4Zm3-3.2h-.3a26.9,26.9,0,0,1-2.9,1.6c-.4.3-.4.5,0,.7a2.1,2.1,0,0,0,1.2.5l5,.3a46.2,46.2,0,0,0,9.1.2c2-.2,4.1-.1,5.9-1.3a3.6,3.6,0,0,0-2.1-1.4h-.1a4.1,4.1,0,0,0-2.4-.6,38.2,38.2,0,0,1-11.2-.7,3.7,3.7,0,0,1-1.1-.4l.9-.5a14.2,14.2,0,0,1-4.1-.3h.2a6.1,6.1,0,0,1,4.6.2h.3l4-.2h7.7l2.7.5c.2,0,.4.3.5.5l-.5.4-1.7.4a1.4,1.4,0,0,0,.9,0l4.2-.7a1.9,1.9,0,0,0,1.5-1.1.5.5,0,0,0-.2-.8,10.6,10.6,0,0,0-2.5-.9c-1.8-.4-3.6-.5-5.5-.8A65,65,0,0,0,17,107c-2.4.1-4.8.4-7.2.6a12.4,12.4,0,0,0-4.2,1.1l-.6.5c.2.2.3.5.6.6a25.6,25.6,0,0,0,6,1.7Zm2.9-.9h.3l3.9.5a27.5,27.5,0,0,0,8.1-.1l1.5-.6v-.3a5.8,5.8,0,0,0-1.8-.4l-7.6-.2-3.7.3A.6.6,0,0,0,16.6,110.9Zm4,4.8a49.7,49.7,0,0,0-8.4-.5C13.3,116,19.4,116.4,20.6,115.7Zm15-2.8a9.7,9.7,0,0,0-4.5-.7A4.3,4.3,0,0,0,35.6,112.9ZM5.9,113c1.1.5,3.9.5,4.9-.7A13.5,13.5,0,0,0,5.9,113ZM31,115.1l-7.2.6C24.7,116.2,30.3,115.8,31,115.1Z" transform="translate(-3.5 -106.7)"/><path d="M30.6,109.8a4.4,4.4,0,0,1,3.2-.3l.2.2-.2.2A5.8,5.8,0,0,1,30.6,109.8Z" transform="translate(-3.5 -106.7)"/></svg>