<svg id="Layer_1" data-name="Layer 1" xmlns="http://www.w3.org/2000/svg" width="43.3mm" height="14.3mm" viewBox="0 0 122.8 40.5"><path d="M127.5,10.7v-8h13.7V15.1h-3.7V10.7Zm3.7-6.1V8.9h6.3V4.6Z" transform="translate(-18.5 -1.2)" style="fill:#231f20"/><path d="M122.4,13.3V9.9H113V8h9.4V4.6h-8.6l-1.6-1.9h13.9V15.1H112.2l1.6-1.8Z" transform="translate(-18.5 -1.2)" style="fill:#231f20"/><path d="M97.4,10.7v-8h13.7V15.1h-3.7V10.7Zm3.7-6.1V8.9h6.3V4.6Z" transform="translate(-18.5 -1.2)" style="fill:#231f20"/><path d="M85.7,2.7V13.3h6.6V2.7H96V15.1H82.1V2.7Z" transform="translate(-18.5 -1.2)" style="fill:#231f20"/><path d="M80.3,15.1H76.6V2.7h3.7Z" transform="translate(-18.5 -1.2)" style="fill:#231f20"/><path d="M61,2.7h3.7V9.4L74.8,2.7V15.1H71.1V8.4L61,15.1Z" transform="translate(-18.5 -1.2)" style="fill:#231f20"/><path d="M45.6,15.1V2.7h14v9l-3,3.4ZM49.3,4.6v8.7h4.5l2.1-2.4V4.6Z" transform="translate(-18.5 -1.2)" style="fill:#231f20"/><path d="M127.4,19.4h3.7v6.7l10.2-6.7V31.8h-3.7V25l-10.2,6.8Z" transform="translate(-18.5 -1.2)" style="fill:#231f20"/><path d="M126,19.4V31.8h-3.8V26.5h-6.5v5.3H112V19.4Zm-10.2,1.8v3.4h6.4V21.2Z" transform="translate(-18.5 -1.2)" style="fill:#231f20"/><path d="M96.7,19.4h3.7v6.7l10.2-6.7V31.8h-3.7V25L96.7,31.8Z" transform="translate(-18.5 -1.2)" style="fill:#231f20"/><path d="M81.3,31.8V19.4h14v8.9l-3,3.5ZM85,21.2v8.7h4.5l2.1-2.4V21.2Z" transform="translate(-18.5 -1.2)" style="fill:#231f20"/><path d="M21.9,29.1l-1.7-.3c-.5,0-.7-.3-.8-.8s-.6-2.5.5-3.3,1.8-1.9,3.3-1.7.5-.2.5-.3,0-.4-.2-.6-2.6-3.6-3.7-5.5-1-4.1-1.2-6.2A4.8,4.8,0,0,1,20,6.6a17.3,17.3,0,0,1,1.7-2.1l3.1-2.2a5.2,5.2,0,0,1,2-.9,12.2,12.2,0,0,1,3.3-.2,12.4,12.4,0,0,1,7.5,3.4A9.1,9.1,0,0,1,40.4,10a26.2,26.2,0,0,1,0,5.6c-.3,3.1-2,5-4.4,6.7v.2c1.1-.4,1.9.2,2.8.7a3.6,3.6,0,0,1,1.4,2.6,2.6,2.6,0,0,1-1.7,2.8c-.6.2-.7.5-.8,1.1a14.4,14.4,0,0,1-.7,3.6,1.2,1.2,0,0,0,.1,1.3.8.8,0,0,1,.1,1.2.3.3,0,0,0-.1.2c.3,1.2-.6,1.8-1.3,2.4a5.4,5.4,0,0,1-2.7,1.1,2.3,2.3,0,0,1-2.2-.8,2.6,2.6,0,0,0-1,.7,1.4,1.4,0,0,1-1.4.7,8.8,8.8,0,0,1-2.9-.5c-1.2-.8-2.5-1.6-2.6-3.2a9.9,9.9,0,0,1,.2-1.7A9,9,0,0,1,21.9,29.1ZM39.7,12.6c-.2-.8-.3-1.6-.5-2.3a9.3,9.3,0,0,0-2.5-4.8L34.9,4l-1.3-.5a7.3,7.3,0,0,0-6.2-1.1,10.6,10.6,0,0,0-7.2,6c-1.2,2.5-.8,4.9.2,7.3a31.4,31.4,0,0,0,2.8,4.6,8.8,8.8,0,0,0,1.5,1.2,1.4,1.4,0,0,1,.3.9l-1.5,5.2a8.7,8.7,0,0,0-.4,4.8,2.4,2.4,0,0,0,1.7,1.9A16.7,16.7,0,0,1,29.2,36a3.4,3.4,0,0,0,2.8.3l1.8-.9,1.2-.8c1-.8.9-2.1,1.4-3.1a3.6,3.6,0,0,0,.4-1.1,17.5,17.5,0,0,0-.5-3.3c-.4-1.4-.9-2.8-1.4-4.1s-.5-1,.2-1.4a10,10,0,0,0,2.2-1.9A7.7,7.7,0,0,0,39,17,31.1,31.1,0,0,0,39.7,12.6ZM29.5,37.5A11.7,11.7,0,0,0,27,35.9a11.5,11.5,0,0,0-2.8-.6,3.3,3.3,0,0,0,0,1A4,4,0,0,0,26.7,39C28.2,39.8,29.5,39.1,29.5,37.5ZM23.3,24.1a3.1,3.1,0,0,0-3.2,2.7,1.8,1.8,0,0,0,.8,1.2,1.2,1.2,0,0,0,1-.2C23,26.9,22.9,25.5,23.3,24.1Zm12.9-.8c.5,1.6.9,3,1.4,4.3s.3.3.5.3,1.1-.5,1.2-1.2S38.2,23.6,36.2,23.3Zm0,12-4.6,2.3c.2.9.3,1,1.4.8l2.3-.8A2.1,2.1,0,0,0,36.2,35.3Z" transform="translate(-18.5 -1.2)"/><path d="M26.5,15.3c-2.1,0-2.7-.2-2.7-1.2s.6-1.9,1.2-1.9,1.8.5,1.9,2.3a2.2,2.2,0,0,1,2.7-1.1c1.5.2,3,0,4.4.3A3.4,3.4,0,0,1,36.7,17a5.1,5.1,0,0,1-1.5,4.1c-2,1.8-4.2,2.1-6.4.3-.7-.7-1.6-1.3-2.2-2a2.8,2.8,0,0,1-.4-2.9Zm4.2-.9c-1.4,0-2.5-.1-3.2,1s-.8,2.6-.1,3.4a23.1,23.1,0,0,0,2.4,2c2.1,1.4,2.8,1.1,4.7-.3s1.2-2,1.4-3.1a2.8,2.8,0,0,0-1.7-2.6Z" transform="translate(-18.5 -1.2)"/><path d="M38.2,13.4c0,.8-.5,1.7-1.2,1.6a1.1,1.1,0,0,1-1-1.1c0-.8.6-1.8,1.1-1.8S38.2,12.6,38.2,13.4Z" transform="translate(-18.5 -1.2)"/><path d="M135.8,41.7l.6-.7H140l.3-.4V38.1l-.3-.4h-2.6l-.4.4v1.8h.5V38.6l.3-.3h1.8l.2.3v1.5l-.2.3h-3.5V37.7l.6-.7h4l.6.7v3.2l-.6.8Zm2.5-2v.2h.5v-1h-.7Z" transform="translate(-18.5 -1.2)" style="fill:#231f20"/><path d="M130.2,40V37h5.2v4.7H134V40Zm1.4-2.3v1.6H134V37.7Z" transform="translate(-18.5 -1.2)" style="fill:#231f20"/><path d="M129.5,41.7h-1.4V37h1.4Z" transform="translate(-18.5 -1.2)" style="fill:#231f20"/><path d="M122.3,40V37h5.1v4.7H126V40Zm1.4-2.3v1.6h2.4V37.7Z" transform="translate(-18.5 -1.2)" style="fill:#231f20"/><path d="M120.3,41V39.7h-3.6V39h3.6V37.7H117l-.6-.7h5.3v4.7h-5.3l.6-.7Z" transform="translate(-18.5 -1.2)" style="fill:#231f20"/><path d="M112.2,41.7V37h1.4v4h2.6l-.6.7Z" transform="translate(-18.5 -1.2)" style="fill:#231f20"/><path d="M106.4,41.7V37h5.3v3.4l-1.2,1.3Zm1.4-4V41h1.7l.8-.9V37.7Z" transform="translate(-18.5 -1.2)" style="fill:#231f20"/><path d="M100.5,39h3.9V38l-.3-.3h-3.2l-.5-.7h4.7l.6.7v2h-3.8v1l.3.3h3.7l-.6.7h-4.2l-.6-.7Z" transform="translate(-18.5 -1.2)" style="fill:#231f20"/><path d="M96.1,37v2h2.4V37h1.4v4.7H98.5v-2H96.1v2H94.7V37Z" transform="translate(-18.5 -1.2)" style="fill:#231f20"/></svg>