<svg id="Layer_1" data-name="Layer 1" xmlns="http://www.w3.org/2000/svg" width="19.1mm" height="2.5mm" viewBox="0 0 54.3 7"><path d="M44.9,9.7v2.5H42.8v-7h7.7V9.7Zm0-3.5V8.6h3.5V6.2Z" transform="translate(-42.8 -5.2)" style="fill:#231f20"/><path d="M58.4,11.1l.9,1.1H51.4v-7h7.9l-.9,1H53.5V8.1h5.3V9.2H53.5v1.9Z" transform="translate(-42.8 -5.2)" style="fill:#231f20"/><path d="M62,9.7v2.5H59.9v-7h7.7V9.7Zm0-3.5V8.6h3.5V6.2Z" transform="translate(-42.8 -5.2)" style="fill:#231f20"/><path d="M76.4,5.2v7H68.5v-7h2.1v5.9h3.8V5.2Z" transform="translate(-42.8 -5.2)" style="fill:#231f20"/><path d="M77.4,5.2h2.1v7H77.4Z" transform="translate(-42.8 -5.2)" style="fill:#231f20"/><path d="M88.3,12.2,82.6,8.3v3.9H80.5v-7l5.8,3.7V5.2h2Z" transform="translate(-42.8 -5.2)" style="fill:#231f20"/><path d="M90.8,12.2l-1.7-2v-5h8v7Zm.4-6V9.8l1.2,1.3H95V6.2Z" transform="translate(-42.8 -5.2)" style="fill:#231f20"/></svg>