<svg id="Layer_1" data-name="Layer 1" xmlns="http://www.w3.org/2000/svg" width="6.4mm" height="0.6mm" viewBox="0 0 18.2 1.6"><path d="M15.8,49.1l-.2-.2V47.8l.2-.3h1.4l.2.3v.9H16.1V48h.8v.5h.2v-.6l-.2-.2H16v1.2h1.3l.2.2Zm.8-.9h-.2v.2h.2Z" transform="translate(-15.6 -47.5)" style="fill:#231f20"/><path d="M18.8,48.3l.7.8H19l-.6-.7h-.3v.7h-.5V47.5h.5v.7h.3l.5-.7h.6Z" transform="translate(-15.6 -47.5)" style="fill:#231f20"/><path d="M21.5,47.5v1.6H21v-.7h-.9v.7h-.5V47.5Zm-1.4.2v.5H21v-.5Z" transform="translate(-15.6 -47.5)" style="fill:#231f20"/><path d="M23.4,48.9l.2.2h-2l1.2-1.4h-1l-.2-.2h2l-1.3,1.4Z" transform="translate(-15.6 -47.5)" style="fill:#231f20"/><path d="M25.5,47.5v1.6H23.7V47.5h.5v1.4H25V47.5Z" transform="translate(-15.6 -47.5)" style="fill:#231f20"/><path d="M25.7,49.1V47.5h.5v.9l.5-.3.5.3v-.9h.5v1.6l-1-.6Z" transform="translate(-15.6 -47.5)" style="fill:#231f20"/><path d="M29.7,47.5v1.6h-.5v-.7h-.8v.7h-.5V47.5Zm-1.3.2v.5h.8v-.5Z" transform="translate(-15.6 -47.5)" style="fill:#231f20"/><path d="M31.6,48.9l.2.2h-2l1.3-1.4H30l-.2-.2h2l-1.2,1.4Z" transform="translate(-15.6 -47.5)" style="fill:#231f20"/><path d="M33.8,47.5v1.6H32V47.5h.4v1.4h.9V47.5Z" transform="translate(-15.6 -47.5)" style="fill:#231f20"/></svg>